<svg id="Capa_1" enable-background="new 0 0 516.851 516.851" viewBox="0 0 516.851 516.851" xmlns="http://www.w3.org/2000/svg"><g><path d="m374.706 472.577-20.33-18.551-14.888-114.934c-1.281-9.835-6.115-18.973-13.421-25.593 1.37-3.484 1.752-7.333.997-11.109-1.274-6.372-5.599-11.712-11.569-14.285l-54.11-23.32c-.004-.002-.009-.004-.013-.005l-.054-.023c-.03-.013-.057-.029-.086-.041l-73.925-31.013 22.737-59.016 26.367-1.005c4.139-.158 7.367-3.641 7.209-7.78s-3.629-7.351-7.78-7.209l-35.219 1.343.042-24.141 44.031-2.332c4.136-.219 7.312-3.75 7.093-7.886-.218-4.136-3.755-7.323-7.886-7.093l-9.824.52c.962-1.288 1.962-2.548 3.014-3.76 4.954-5.697 11.84-9.168 19.26-9.809 9.885 12.793 28.121 20.056 44.49 17.09 5.347 4.196 7.352 11.517 4.62 17.992l-43.392 102.858c-1.61 3.816.179 8.215 3.995 9.825 3.732 1.574 8.201-.13 9.825-3.995l23.994-56.877 20.004 13.251c4.545 3.011 9.784 4.587 15.212 4.587.95 0 69.461-2.555 70.5-2.594 7.227-.268 14.071-3.572 18.778-9.066 4.71-5.498 6.926-12.775 6.081-19.966-1.54-13.097-12.641-22.973-25.821-22.973h-65.12l-18.991-12.783c2.536-8.924.815-18.3-4.298-25.612.506-.28 1.017-.545 1.515-.845 10.856-6.541 18.518-16.919 21.574-29.223l6.424-25.859c6.31-25.402-9.211-51.199-34.598-57.506-12.298-3.056-25.052-1.135-35.909 5.406-10.856 6.541-18.518 16.919-21.575 29.224l-6.423 25.859c-2.332 9.386-1.675 18.824 1.352 27.315-14.864 3.188-25.977 15.327-32.889 28.432l-49.217 2.606c-9.138.484-17.809 4.234-24.417 10.561l-43.613 41.757c-5.477 5.245-8.54 12.308-8.624 19.888-.083 7.58 2.822 14.708 8.183 20.073 5.436 5.439 12.596 8.162 19.76 8.161 7.102 0 14.207-2.677 19.631-8.036l39.617-39.141 16.712-.637-22.981 59.649c-.001.002-.002.004-.003.007l-32.915 80.666c-3 7.353-1.325 15.748 4.267 21.388l30.272 30.535-108.19 42.924v-27.671l63.81-26.521c3.825-1.59 5.637-5.979 4.047-9.805-1.59-3.824-5.979-5.636-9.804-4.047l-67.108 27.893h-33.845c-11.735 0-21.281 9.551-21.281 21.29v41.11c0 13.272 10.793 24.07 24.059 24.07 6.75 0 13.231-2.862 17.779-7.854l19.22-21.089 124.219-49.284c3.236 1.413 6.899 1.93 10.447 1.467 6.176-.807 11.496-4.365 14.597-9.764l15.567-27.101 30.037 21.015c3.457 2.418 7.423 3.602 11.363 3.602 3.642 0 7.251-1.033 10.421-3.016l18.419 93.651v28.872c0 14.963 12.167 27.136 27.123 27.136h35.242c13.266 0 24.059-10.798 24.059-24.07-.001-6.752-2.86-13.233-7.846-17.783zm-31.307-301.91h61.238c5.576 0 10.272 4.181 10.924 9.724.363 3.091-.551 6.094-2.575 8.456-2.021 2.358-4.841 3.72-7.942 3.835l-66.449 2.462zm-14.49-4.059-4.699 23.941-18.394-12.184 8.97-21.263zm-60.691-124.523c2.091-8.417 7.333-15.518 14.758-19.992 7.448-4.488 16.197-5.772 24.552-3.697 18.11 4.499 29.304 24.406 22.89 42.416l-23.773-14.287c-7.269-4.368-16.649-2.951-22.3 3.368l-5.171 5.78c-.886.991-2.388 1.181-3.496.447l-9.396-6.237zm-6.424 25.859.647-2.606 4.939 3.279c7.276 4.83 17.152 3.565 22.972-2.943l5.171-5.78c.86-.961 2.288-1.177 3.395-.512l27.717 16.657-1.875 7.549c-4.164 17.071-22.231 28.006-39.31 23.688-17.36-4.313-27.971-21.957-23.656-39.332zm-76.173 92.661-12.086.461c-1.874.071-3.652.842-4.985 2.159l-41.69 41.189c-5.044 4.982-13.226 4.958-18.238-.058-2.485-2.487-3.833-5.791-3.794-9.304s1.459-6.787 3.999-9.218l43.613-41.757c4.015-3.843 9.284-6.122 14.837-6.416l18.387-.974zm-136.44 258.011-18.43 20.222c-1.712 1.879-4.151 2.957-6.692 2.957-4.995 0-9.059-4.069-9.059-9.07v-41.11c0-3.469 2.817-6.29 6.281-6.29h27.9zm148.132-55.815c-1.026 1.787-2.653 2.246-3.532 2.36-.878.119-2.571.089-4.024-1.377l-37.007-37.329c-1.35-1.361-1.754-3.388-1.03-5.16l30.052-73.65 65.825 27.615zm79.837-18.145c-.021.021-.04.042-.061.063l-6.375 6.585c-1.646 1.7-4.25 1.949-6.191.592l-31.135-21.783 28.113-48.943 48.057 20.711c2.081.896 2.649 2.712 2.796 3.45s.321 2.629-1.251 4.253l-.321.332c-.043.042-.084.087-.126.13zm13.407 7.717 26.191-27.054c4.27 4.175 7.089 9.74 7.866 15.706l14.144 109.187h-28.958zm67.935 147.057h-35.242c-6.685 0-12.123-5.444-12.123-12.136v-22.084h33.253l20.215 18.446c1.879 1.715 2.957 4.158 2.957 6.703-.001 5.002-4.065 9.071-9.06 9.071zm92.496-116.725c-36.316 0-65.862 29.546-65.862 65.863 0 36.316 29.546 65.862 65.862 65.862 36.317 0 65.863-29.546 65.863-65.862 0-36.317-29.546-65.863-65.863-65.863zm0 116.725c-28.045 0-50.862-22.816-50.862-50.862s22.817-50.863 50.862-50.863c28.046 0 50.863 22.817 50.863 50.863s-22.817 50.862-50.863 50.862z"/></g></svg>